<svg width="117" height="114" viewBox="0 0 117 114" fill="none" xmlns="http://www.w3.org/2000/svg">
<path d="M14.625 14.25C14.625 10.4707 16.1658 6.84612 18.9086 4.17373C21.6513 1.50134 25.3712 0 29.25 0L87.75 0C91.6288 0 95.3487 1.50134 98.0914 4.17373C100.834 6.84612 102.375 10.4707 102.375 14.25V99.75C102.375 103.529 100.834 107.154 98.0914 109.826C95.3487 112.499 91.6288 114 87.75 114H29.25C25.3712 114 21.6513 112.499 18.9086 109.826C16.1658 107.154 14.625 103.529 14.625 99.75V14.25ZM29.25 17.8125V32.0625C29.25 33.0073 29.6352 33.9135 30.3209 34.5816C31.0066 35.2497 31.9366 35.625 32.9062 35.625H84.0938C85.0634 35.625 85.9934 35.2497 86.6791 34.5816C87.3648 33.9135 87.75 33.0073 87.75 32.0625V17.8125C87.75 16.8677 87.3648 15.9615 86.6791 15.2934C85.9934 14.6253 85.0634 14.25 84.0938 14.25H32.9062C31.9366 14.25 31.0066 14.6253 30.3209 15.2934C29.6352 15.9615 29.25 16.8677 29.25 17.8125ZM29.25 46.3125V53.4375C29.25 54.3823 29.6352 55.2885 30.3209 55.9566C31.0066 56.6247 31.9366 57 32.9062 57H40.2188C41.1884 57 42.1184 56.6247 42.8041 55.9566C43.4898 55.2885 43.875 54.3823 43.875 53.4375V46.3125C43.875 45.3677 43.4898 44.4615 42.8041 43.7934C42.1184 43.1253 41.1884 42.75 40.2188 42.75H32.9062C31.9366 42.75 31.0066 43.1253 30.3209 43.7934C29.6352 44.4615 29.25 45.3677 29.25 46.3125ZM32.9062 64.125C31.9366 64.125 31.0066 64.5003 30.3209 65.1684C29.6352 65.8365 29.25 66.7427 29.25 67.6875V74.8125C29.25 75.7573 29.6352 76.6635 30.3209 77.3316C31.0066 77.9997 31.9366 78.375 32.9062 78.375H40.2188C41.1884 78.375 42.1184 77.9997 42.8041 77.3316C43.4898 76.6635 43.875 75.7573 43.875 74.8125V67.6875C43.875 66.7427 43.4898 65.8365 42.8041 65.1684C42.1184 64.5003 41.1884 64.125 40.2188 64.125H32.9062ZM29.25 89.0625V96.1875C29.25 97.1323 29.6352 98.0385 30.3209 98.7066C31.0066 99.3747 31.9366 99.75 32.9062 99.75H40.2188C41.1884 99.75 42.1184 99.3747 42.8041 98.7066C43.4898 98.0385 43.875 97.1323 43.875 96.1875V89.0625C43.875 88.1177 43.4898 87.2115 42.8041 86.5434C42.1184 85.8753 41.1884 85.5 40.2188 85.5H32.9062C31.9366 85.5 31.0066 85.8753 30.3209 86.5434C29.6352 87.2115 29.25 88.1177 29.25 89.0625ZM54.8438 42.75C53.8741 42.75 52.9441 43.1253 52.2584 43.7934C51.5727 44.4615 51.1875 45.3677 51.1875 46.3125V53.4375C51.1875 54.3823 51.5727 55.2885 52.2584 55.9566C52.9441 56.6247 53.8741 57 54.8438 57H62.1562C63.1259 57 64.0559 56.6247 64.7416 55.9566C65.4273 55.2885 65.8125 54.3823 65.8125 53.4375V46.3125C65.8125 45.3677 65.4273 44.4615 64.7416 43.7934C64.0559 43.1253 63.1259 42.75 62.1562 42.75H54.8438ZM51.1875 67.6875V74.8125C51.1875 75.7573 51.5727 76.6635 52.2584 77.3316C52.9441 77.9997 53.8741 78.375 54.8438 78.375H62.1562C63.1259 78.375 64.0559 77.9997 64.7416 77.3316C65.4273 76.6635 65.8125 75.7573 65.8125 74.8125V67.6875C65.8125 66.7427 65.4273 65.8365 64.7416 65.1684C64.0559 64.5003 63.1259 64.125 62.1562 64.125H54.8438C53.8741 64.125 52.9441 64.5003 52.2584 65.1684C51.5727 65.8365 51.1875 66.7427 51.1875 67.6875ZM54.8438 85.5C53.8741 85.5 52.9441 85.8753 52.2584 86.5434C51.5727 87.2115 51.1875 88.1177 51.1875 89.0625V96.1875C51.1875 97.1323 51.5727 98.0385 52.2584 98.7066C52.9441 99.3747 53.8741 99.75 54.8438 99.75H62.1562C63.1259 99.75 64.0559 99.3747 64.7416 98.7066C65.4273 98.0385 65.8125 97.1323 65.8125 96.1875V89.0625C65.8125 88.1177 65.4273 87.2115 64.7416 86.5434C64.0559 85.8753 63.1259 85.5 62.1562 85.5H54.8438ZM73.125 46.3125V53.4375C73.125 54.3823 73.5102 55.2885 74.1959 55.9566C74.8816 56.6247 75.8116 57 76.7812 57H84.0938C85.0634 57 85.9934 56.6247 86.6791 55.9566C87.3648 55.2885 87.75 54.3823 87.75 53.4375V46.3125C87.75 45.3677 87.3648 44.4615 86.6791 43.7934C85.9934 43.1253 85.0634 42.75 84.0938 42.75H76.7812C75.8116 42.75 74.8816 43.1253 74.1959 43.7934C73.5102 44.4615 73.125 45.3677 73.125 46.3125ZM76.7812 64.125C75.8116 64.125 74.8816 64.5003 74.1959 65.1684C73.5102 65.8365 73.125 66.7427 73.125 67.6875V96.1875C73.125 97.1323 73.5102 98.0385 74.1959 98.7066C74.8816 99.3747 75.8116 99.75 76.7812 99.75H84.0938C85.0634 99.75 85.9934 99.3747 86.6791 98.7066C87.3648 98.0385 87.75 97.1323 87.75 96.1875V67.6875C87.75 66.7427 87.3648 65.8365 86.6791 65.1684C85.9934 64.5003 85.0634 64.125 84.0938 64.125H76.7812Z" fill="#F26250"/>
</svg>
