<svg width="89" height="114" viewBox="0 0 89 114" fill="none" xmlns="http://www.w3.org/2000/svg">
<path d="M77.875 114C80.8255 114 83.6552 112.799 85.7416 110.661C87.8279 108.523 89 105.623 89 102.6V11.4C89 8.37653 87.8279 5.4769 85.7416 3.33898C83.6552 1.20107 80.8255 0 77.875 0H44.5V39.9L30.5938 31.35L16.6875 39.9V0H11.125C8.17447 0 5.34478 1.20107 3.25844 3.33898C1.17209 5.4769 0 8.37653 0 11.4V102.6C0 105.623 1.17209 108.523 3.25844 110.661C5.34478 112.799 8.17447 114 11.125 114H77.875Z" fill="#F26250"/>
</svg>
