<svg width="14" height="14" viewBox="0 0 14 14" fill="none" xmlns="http://www.w3.org/2000/svg">
<path d="M-2.502e-07 8.88671C-0.000191193 8.06499 0.197484 7.25531 0.576303 6.52617C0.955122 5.79703 1.50394 5.16987 2.17633 4.69775C2.84873 4.22563 3.62491 3.92244 4.43923 3.81382C5.25354 3.70521 6.08203 3.79436 6.85462 4.07375L10.848 0.0787691C10.873 0.0537693 10.9027 0.0339455 10.9354 0.0204301C10.9681 0.00691476 11.0031 -2.72525e-05 11.0385 5.65773e-07L13.7308 6.83457e-07C13.8022 6.86578e-07 13.8707 0.0283727 13.9211 0.0788752C13.9716 0.129378 14 0.197874 14 0.269295L14 2.96224C14 3.03366 13.9716 3.10215 13.9211 3.15266C13.8707 3.20316 13.8022 3.23153 13.7308 3.23153L12.3846 3.23153L12.3846 4.578C12.3846 4.64942 12.3563 4.71792 12.3058 4.76842C12.2553 4.81892 12.1868 4.84729 12.1154 4.84729L10.7692 4.84729L10.7692 6.19377C10.7693 6.22914 10.7623 6.26417 10.7488 6.29687C10.7353 6.32956 10.7155 6.35926 10.6905 6.38429L9.92721 7.14707C10.1804 7.84917 10.277 8.59818 10.2102 9.34158C10.1434 10.085 9.91478 10.8047 9.5404 11.4504C9.16603 12.0961 8.65495 12.652 8.04303 13.0792C7.43112 13.5063 6.73317 13.7944 5.99814 13.9232C5.26312 14.052 4.50883 14.0184 3.78816 13.8248C3.0675 13.6311 2.39792 13.2821 1.82639 12.8022C1.25487 12.3223 0.79523 11.7231 0.479723 11.0467C0.164216 10.3703 0.000480457 9.6331 -2.502e-07 8.88671ZM9.69231 8.88671C9.69344 8.30538 9.58308 7.72923 9.36721 7.18948C9.34518 7.13974 9.33873 7.0845 9.3487 7.03102C9.35867 6.97754 9.3846 6.92834 9.42308 6.88989L10.2308 6.08201L10.2308 4.578C10.2308 4.50658 10.2591 4.43808 10.3096 4.38758C10.3601 4.33708 10.4286 4.30871 10.5 4.30871L11.8462 4.30871L11.8462 2.96224C11.8462 2.89081 11.8745 2.82232 11.925 2.77182C11.9755 2.72131 12.044 2.69294 12.1154 2.69294L13.4615 2.69294L13.4615 0.538589L11.1502 0.538589L7.11173 4.578C7.07329 4.61648 7.0241 4.64242 6.97063 4.6524C6.91717 4.66237 6.86194 4.65592 6.81221 4.63388C5.90266 4.27072 4.90063 4.20895 3.95338 4.45764C3.00612 4.70634 2.1636 5.25239 1.54962 6.01555C0.935639 6.77872 0.582581 7.71874 0.542329 8.69748C0.502077 9.67623 0.776753 10.6421 1.32599 11.4531C1.87523 12.2641 2.67007 12.8775 3.5937 13.2032C4.51733 13.5289 5.52105 13.5497 6.45735 13.2624C7.39365 12.9752 8.21316 12.3952 8.79544 11.6076C9.37773 10.82 9.69208 9.86628 9.69231 8.88671ZM3.76923 10.7718C3.87573 10.7718 3.97983 10.7402 4.06838 10.681C4.15693 10.6218 4.22595 10.5377 4.2667 10.4393C4.30746 10.3409 4.31812 10.2326 4.29735 10.1281C4.27657 10.0236 4.22529 9.92766 4.14998 9.85234C4.07468 9.77701 3.97873 9.72572 3.87428 9.70494C3.76983 9.68416 3.66156 9.69482 3.56317 9.73559C3.46478 9.77635 3.38068 9.84538 3.32152 9.93395C3.26235 10.0225 3.23077 10.1267 3.23077 10.2332C3.23077 10.376 3.2875 10.513 3.38848 10.614C3.48946 10.715 3.62642 10.7718 3.76923 10.7718Z" fill="#A8AEAE"/>
</svg>
