<svg width="77" height="77" viewBox="0 0 77 77" fill="none" xmlns="http://www.w3.org/2000/svg">
<circle cx="38.5" cy="38.5" r="38.5" fill="#EF3B24"/>
<path fill-rule="evenodd" clip-rule="evenodd" d="M49.5239 30.551C50.104 29.9592 50.0952 29.009 49.5034 28.4289C48.9126 27.8488 47.9624 27.8586 47.3823 28.4494L38.9946 37.0002L30.5659 28.4895C29.9829 27.9016 29.0327 27.8967 28.4448 28.4797C27.856 29.0627 27.8511 30.0119 28.4341 30.6008L36.8941 39.1428L28.4761 47.7248C28.0835 48.1252 27.9605 48.6887 28.105 49.1916C28.1743 49.4318 28.3052 49.6584 28.4966 49.8459C29.0874 50.426 30.0376 50.4172 30.6177 49.8254L39.0054 41.2746L47.4331 49.7844C48.0161 50.3732 48.9663 50.3781 49.5552 49.7951C50.1431 49.2121 50.148 48.2629 49.565 47.674L41.106 39.133L49.5239 30.551Z" fill="white"/>
</svg>
