<svg width="91" height="104" viewBox="0 0 91 104" fill="none" xmlns="http://www.w3.org/2000/svg">
<g clip-path="url(#clip0_26_45)">
<path d="M20.8333 26.0417C20.8333 19.135 23.577 12.5112 28.4608 7.62743C33.3445 2.74367 39.9683 0 46.875 0C53.7817 0 60.4055 2.74367 65.2892 7.62743C70.173 12.5112 72.9167 19.135 72.9167 26.0417C72.9167 32.9483 70.173 39.5721 65.2892 44.4559C60.4055 49.3397 53.7817 52.0833 46.875 52.0833C39.9683 52.0833 33.3445 49.3397 28.4608 44.4559C23.577 39.5721 20.8333 32.9483 20.8333 26.0417ZM14.6979 66C23.0469 60.9062 34.401 57.2917 46.875 57.2917C49.2031 57.2917 51.4948 57.4167 53.7292 57.6562C54.6238 57.7522 55.4783 58.0783 56.2094 58.6028C56.9406 59.1272 57.5234 59.8321 57.901 60.6488C58.2787 61.4655 58.4383 62.3661 58.3644 63.2628C58.2905 64.1595 57.9855 65.0218 57.4792 65.7656C53.951 70.9438 52.0701 77.0674 52.0833 83.3333C52.0833 88.125 53.1615 92.6562 55.0781 96.7031C55.4516 97.4915 55.621 98.3611 55.5709 99.232C55.5208 100.103 55.2527 100.947 54.7913 101.688C54.3299 102.428 53.6899 103.041 52.9301 103.469C52.1703 103.898 51.315 104.129 50.4427 104.141L46.875 104.167C35.2656 104.167 24.2969 103.438 16.0781 101.26C11.9896 100.177 8.14062 98.625 5.22396 96.2812C2.13542 93.8021 0 90.3385 0 85.9375C0 81.8385 1.86458 78.0052 4.39583 74.7969C6.96875 71.5417 10.526 68.5469 14.6979 65.9948V66ZM72.9167 83.3333C72.9167 81.952 73.4654 80.6272 74.4422 79.6505C75.4189 78.6737 76.7437 78.125 78.125 78.125H83.2812C86.1875 78.125 88.5417 80.4792 88.5417 83.3854V94.4479C89.5345 95.0212 90.3105 95.9061 90.7492 96.9653C91.1879 98.0246 91.2649 99.1989 90.9681 100.306C90.6714 101.414 90.0176 102.392 89.108 103.09C88.1984 103.788 87.084 104.167 85.9375 104.167H83.3854C81.9903 104.167 80.6523 103.612 79.6657 102.626C78.6792 101.639 78.125 100.301 78.125 98.9062V88.5417C76.7437 88.5417 75.4189 87.9929 74.4422 87.0162C73.4654 86.0394 72.9167 84.7147 72.9167 83.3333ZM83.3333 62.5C82.0058 62.5015 80.729 63.0098 79.7637 63.9211C78.7984 64.8324 78.2175 66.0779 78.1397 67.4031C78.0619 68.7283 78.4931 70.0332 79.3451 71.0512C80.1972 72.0692 81.4058 72.7234 82.724 72.8802L83.3438 72.9167C84.6713 72.9152 85.9481 72.4069 86.9134 71.4956C87.8787 70.5843 88.4596 69.3388 88.5374 68.0136C88.6152 66.6884 88.184 65.3834 87.332 64.3655C86.4799 63.3475 85.2713 62.6933 83.9531 62.5365L83.3333 62.5Z" fill="#F26250"/>
</g>
<defs>
<clipPath id="clip0_26_45">
<rect width="91" height="104" fill="white"/>
</clipPath>
</defs>
</svg>
