<svg width="123" height="200" viewBox="0 0 123 200" fill="none" xmlns="http://www.w3.org/2000/svg">
<path fill-rule="evenodd" clip-rule="evenodd" d="M0 88C0 86.8954 0.895431 86 2 86H68C69.1046 86 70 86.8954 70 88V198C70 199.105 69.1046 200 68 200H2C0.89543 200 0 199.105 0 198V88ZM24 102.5C24 106.09 21.0899 109 17.5 109C13.9101 109 11 106.09 11 102.5C11 98.9101 13.9101 96 17.5 96C21.0899 96 24 98.9101 24 102.5ZM52.5 109C56.0899 109 59 106.09 59 102.5C59 98.9101 56.0899 96 52.5 96C48.9101 96 46 98.9101 46 102.5C46 106.09 48.9101 109 52.5 109ZM24 141.5C24 145.09 21.0899 148 17.5 148C13.9101 148 11 145.09 11 141.5C11 137.91 13.9101 135 17.5 135C21.0899 135 24 137.91 24 141.5ZM52.5 148C56.0899 148 59 145.09 59 141.5C59 137.91 56.0899 135 52.5 135C48.9101 135 46 137.91 46 141.5C46 145.09 48.9101 148 52.5 148ZM24 162.5C24 166.09 21.0899 169 17.5 169C13.9101 169 11 166.09 11 162.5C11 158.91 13.9101 156 17.5 156C21.0899 156 24 158.91 24 162.5ZM52.5 169C56.0899 169 59 166.09 59 162.5C59 158.91 56.0899 156 52.5 156C48.9101 156 46 158.91 46 162.5C46 166.09 48.9101 169 52.5 169ZM24 182.5C24 186.09 21.0899 189 17.5 189C13.9101 189 11 186.09 11 182.5C11 178.91 13.9101 176 17.5 176C21.0899 176 24 178.91 24 182.5ZM52.5 189C56.0899 189 59 186.09 59 182.5C59 178.91 56.0899 176 52.5 176C48.9101 176 46 178.91 46 182.5C46 186.09 48.9101 189 52.5 189ZM24 121.5C24 125.09 21.0899 128 17.5 128C13.9101 128 11 125.09 11 121.5C11 117.91 13.9101 115 17.5 115C21.0899 115 24 117.91 24 121.5ZM52.5 128C56.0899 128 59 125.09 59 121.5C59 117.91 56.0899 115 52.5 115C48.9101 115 46 117.91 46 121.5C46 125.09 48.9101 128 52.5 128Z" fill="#F26250"/>
<path d="M119.98 0H78.0707C76.432 0 75.1039 1.32851 75.1039 2.96679V50.3647C75.1039 50.3722 75.1039 50.3792 75.1039 50.387V197.032C75.1039 198.671 76.4324 199.999 78.0707 199.999H94.705C94.7085 199.999 94.712 200 94.7156 200C94.7187 200 94.7218 199.999 94.7249 199.999H119.979C121.618 199.999 122.946 198.671 122.946 197.032V2.96679C122.947 1.32851 121.619 0 119.98 0ZM107.49 5.93397C107 6.99061 106.321 7.58514 105.863 7.58514C105.405 7.58514 104.726 6.991 104.237 5.93397H107.49ZM85.0371 194.065H81.0375V68.51C92.5218 113.643 86.4875 180.132 85.0371 194.065ZM92.4417 194.065H91.005C91.8035 186.327 93.6624 165.927 93.871 142.027C94.2249 101.422 89.9062 70.3823 81.0379 49.7374V5.93397H84.3339C84.9957 11.4301 87.2039 26.2265 94.5265 61.5034C102.404 99.4541 101.266 134.038 98.9241 156.367C96.9253 175.427 93.7351 189.042 92.4417 194.065ZM98.5691 194.065C100.074 188.008 102.924 175.032 104.809 157.147C107.21 134.361 108.384 99.0627 100.336 60.2975C93.2753 26.2781 91.0214 11.5883 90.3081 5.93358H98.0113C98.9812 10.3613 102.084 13.5187 105.864 13.5187C109.644 13.5187 112.746 10.3621 113.716 5.93358H117.013V13.2152C114.083 16.7007 105.784 29.3156 105.784 60.3452C105.784 91.3748 114.083 103.99 117.013 107.475V154.311C105.326 165.53 103.123 186.324 102.71 194.065H98.5691ZM117.013 25.3078V95.3768C114.394 88.7096 111.717 77.662 111.717 60.3456C111.717 43.021 114.396 31.9706 117.013 25.3078ZM117.014 194.065H108.664C109.032 187.952 110.573 173.683 117.014 163.65V194.065Z" fill="#F26250"/>
</svg>
