<svg width="33" height="33" viewBox="0 0 33 33" fill="none" xmlns="http://www.w3.org/2000/svg">
<circle cx="16.5" cy="16.5" r="16.5" fill="#F26250"/>
<path d="M20.5133 8C19.8495 8.00001 19.1939 8.14689 18.5935 8.43012C17.9931 8.71334 17.4628 9.1259 17.0406 9.6382C16.6184 10.1505 16.3148 10.7499 16.1516 11.3933C15.9883 12.0368 15.9694 12.7084 16.0963 13.36L9.67031 20.018C9.23364 20.4654 8.99258 21.068 9.00017 21.6931C9.00777 22.3183 9.26339 22.9148 9.71081 23.3515C10.1582 23.7882 10.7608 24.0292 11.386 24.0216C12.0111 24.014 12.6076 23.7584 13.0443 23.311L19.4093 16.863C20.157 17.0525 20.9409 17.0465 21.6857 16.8458C22.4305 16.645 23.1111 16.2562 23.6624 15.7166C24.2136 15.177 24.6169 14.5048 24.8335 13.7645C25.0501 13.0242 25.0728 12.2406 24.8993 11.489C24.8791 11.4022 24.8361 11.3223 24.7748 11.2577C24.7134 11.1931 24.6358 11.1461 24.5502 11.1215C24.4645 11.0969 24.3738 11.0957 24.2875 11.118C24.2012 11.1402 24.1224 11.1851 24.0593 11.248L21.5133 13.793L19.2213 11.5L21.7663 8.955C21.8292 8.89181 21.8741 8.81295 21.8963 8.72658C21.9185 8.64021 21.9171 8.54949 21.8924 8.4638C21.8678 8.37812 21.8206 8.30059 21.7559 8.23926C21.6912 8.17794 21.6112 8.13503 21.5243 8.115C21.1931 8.03875 20.8542 8.00017 20.5143 8" fill="white"/>
</svg>
