<svg width="25" height="25" viewBox="0 0 25 25" fill="none" xmlns="http://www.w3.org/2000/svg">
<g clip-path="url(#clip0_25_35)">
<path d="M24.7715 23.0018L17.1804 15.7772C18.5953 14.1742 19.448 12.112 19.448 9.86019C19.448 4.75836 15.0757 0.622437 9.68237 0.622437C4.28901 0.622437 -0.083252 4.75836 -0.083252 9.86019C-0.083252 14.962 4.28901 19.0979 9.68237 19.0979C12.1328 19.0979 14.371 18.2422 16.0859 16.8314L23.6664 24.0472C23.9714 24.3358 24.4664 24.3358 24.7715 24.0472C25.0761 23.7586 25.0761 23.2908 24.7715 23.0018H24.7715ZM9.68237 17.6321C5.14487 17.6321 1.46636 14.1524 1.46636 9.86019C1.46636 5.56796 5.14487 2.08828 9.68237 2.08828C14.2199 2.08828 17.8984 5.56796 17.8984 9.86019C17.8984 14.1524 14.2199 17.6321 9.68237 17.6321Z" fill="#5B5E5F"/>
</g>
<defs>
<clipPath id="clip0_25_35">
<rect width="25" height="23.6486" fill="white" transform="translate(0 0.622437)"/>
</clipPath>
</defs>
</svg>
