<svg width="19" height="19" viewBox="0 0 19 19" fill="none" xmlns="http://www.w3.org/2000/svg">
<path fill-rule="evenodd" clip-rule="evenodd" d="M2.57324 9.50002C2.57324 9.34255 2.6358 9.19153 2.74715 9.08018C2.8585 8.96883 3.00952 8.90627 3.16699 8.90627L14.4007 8.90627L10.6641 5.1696C10.6057 5.11525 10.559 5.0497 10.5265 4.97686C10.494 4.90403 10.4766 4.82541 10.4752 4.74568C10.4738 4.66596 10.4884 4.58677 10.5183 4.51284C10.5482 4.43891 10.5926 4.37175 10.649 4.31537C10.7054 4.25898 10.7725 4.21454 10.8465 4.18467C10.9204 4.15481 10.9996 4.14015 11.0793 4.14155C11.159 4.14296 11.2377 4.16041 11.3105 4.19286C11.3833 4.22531 11.4489 4.2721 11.5032 4.33044L16.2532 9.08044C16.3644 9.19177 16.4269 9.34268 16.4269 9.50002C16.4269 9.65736 16.3644 9.80828 16.2532 9.9196L11.5032 14.6696C11.4489 14.7279 11.3833 14.7747 11.3105 14.8072C11.2377 14.8396 11.159 14.8571 11.0793 14.8585C10.9996 14.8599 10.9204 14.8452 10.8465 14.8154C10.7725 14.7855 10.7054 14.7411 10.649 14.6847C10.5926 14.6283 10.5482 14.5611 10.5183 14.4872C10.4884 14.4133 10.4738 14.3341 10.4752 14.2544C10.4766 14.1746 10.494 14.096 10.5265 14.0232C10.559 13.9503 10.6057 13.8848 10.6641 13.8304L14.4007 10.0938L3.16699 10.0938C3.00952 10.0938 2.8585 10.0312 2.74715 9.91987C2.6358 9.80852 2.57324 9.65749 2.57324 9.50002Z" fill="black"/>
</svg>
